<svg xmlns="http://www.w3.org/2000/svg" viewBox="0 0 64 64" width="64" height="64" shape-rendering="crispEdges">
<g id="pet-root">
<!-- tail -->
<polygon points="18,34 14,33 11,30 9,27 8,23 9,20 11,21 11,24 13,27 16,29 20,29 22,32" fill="#2b1d18"/>
<polygon points="17,33 14,31 12,29 10,26 10,23 11,22 12,25 14,28 18,30 20,30 21,32" fill="#8d5b3b"/>

<!-- far rear leg -->
<polygon points="20,39 25,40 24,49 22,54 18,54 19,49" fill="#2b1d18"/>
<rect x="20" y="40" width="3" height="12" fill="#70482f"/>

<!-- far front leg -->
<polygon points="39,38 44,38 45,48 43,54 39,54 40,48" fill="#2b1d18"/>
<rect x="41" y="39" width="2" height="13" fill="#70482f"/>

<!-- body silhouette -->
<polygon points="15,29 18,25 24,22 32,21 39,23 45,27 47,33 45,40 40,44 32,46 24,45 18,42 15,37" fill="#2b1d18"/>
<polygon points="18,30 21,27 25,24 32,24 38,25 43,29 44,34 42,39 38,42 32,43 25,42 20,40 18,36" fill="#925f3d"/>

<!-- chest / belly -->
<polygon points="38,27 43,30 45,34 43,40 39,42 36,39 37,33" fill="#b47e52"/>
<polygon points="20,38 25,41 32,42 38,40 38,43 32,46 24,44 20,42" fill="#744a31"/>

<!-- near rear leg -->
<polygon points="24,40 29,41 28,49 27,55 23,55 24,49" fill="#2b1d18"/>
<rect x="25" y="42" width="2" height="11" fill="#925f3d"/>

<!-- near front leg -->
<polygon points="39,37 44,36 47,43 46,51 44,55 40,55 41,49 41,43" fill="#2b1d18"/>
<polygon points="41,39 44,38 45,44 44,51 43,53 42,53 43,48 42,43" fill="#925f3d"/>

<!-- paws -->
<rect x="22" y="53" width="7" height="3" fill="#2b1d18"/>
<rect x="17" y="52" width="6" height="3" fill="#2b1d18"/>
<rect x="39" y="53" width="8" height="3" fill="#2b1d18"/>

<!-- neck -->
<polygon points="35,29 34,24 35,19 39,16 44,17 47,21 47,27 44,31 40,33" fill="#2b1d18"/>
<polygon points="37,28 36,24 37,20 40,18 43,19 45,22 45,27 43,30 40,31" fill="#925f3d"/>

<!-- floppy ears -->
<polygon points="39,20 35,18 32,20 32,26 35,30 39,29" fill="#2b1d18"/>
<polygon points="38,21 35,20 34,21 34,25 36,28 38,27" fill="#65422e"/>
<polygon points="45,20 49,19 52,21 53,25 51,29 48,31 45,28" fill="#2b1d18"/>
<polygon points="46,21 49,21 51,22 51,25 50,28 48,29 46,27" fill="#65422e"/>

<!-- head -->
<polygon points="39,15 41,12 46,10 51,11 55,14 57,18 57,22 55,26 52,28 47,29 43,27 40,24 38,20" fill="#2b1d18"/>
<polygon points="41,16 43,13 47,12 51,13 54,15 55,18 55,22 53,25 50,26 46,27 43,25 41,23 40,20" fill="#986542"/>

<!-- muzzle -->
<polygon points="48,20 53,19 57,21 61,24 61,27 58,29 54,29 50,27 47,24" fill="#c28b5a"/>

<!-- nose -->
<rect x="59" y="24" width="3" height="3" fill="#241914"/>
<rect x="58" y="23" width="3" height="1" fill="#241914"/>

<!-- eyes -->
<rect x="48" y="16" width="3" height="3" fill="#2b1d18"/>
<rect x="49" y="17" width="1" height="1" fill="#d8c28f"/>
<rect x="44" y="16" width="2" height="2" fill="#2b1d18"/>

<!-- face planes -->
<rect x="43" y="13" width="3" height="2" fill="#b47e52"/>
<rect x="51" y="13" width="3" height="2" fill="#7c4f34"/>

<!-- mouth -->
<rect x="53" y="28" width="5" height="1" fill="#3a241b"/>
</g>
</svg>