<svg xmlns="http://www.w3.org/2000/svg" width="16" height="16" viewBox="0 0 16 16" shape-rendering="crispEdges">
<rect x="8" y="3" width="1" height="1" fill="#161109"/>
<rect x="9" y="3" width="1" height="1" fill="#161109"/>
<rect x="10" y="3" width="1" height="1" fill="#161109"/>
<rect x="11" y="3" width="1" height="1" fill="#161109"/>
<rect x="12" y="3" width="1" height="1" fill="#161109"/>
<rect x="7" y="4" width="1" height="1" fill="#161109"/>
<rect x="8" y="4" width="1" height="1" fill="#ffe4c3"/>
<rect x="9" y="4" width="1" height="1" fill="#ffe4c3"/>
<rect x="10" y="4" width="1" height="1" fill="#e0c8a0"/>
<rect x="11" y="4" width="1" height="1" fill="#e0c8a0"/>
<rect x="12" y="4" width="1" height="1" fill="#ffe4c3"/>
<rect x="13" y="4" width="1" height="1" fill="#161109"/>
<rect x="6" y="5" width="1" height="1" fill="#161109"/>
<rect x="7" y="5" width="1" height="1" fill="#ffe4c3"/>
<rect x="8" y="5" width="1" height="1" fill="#e0c8a0"/>
<rect x="9" y="5" width="1" height="1" fill="#e0c8a0"/>
<rect x="10" y="5" width="1" height="1" fill="#e0c8a0"/>
<rect x="11" y="5" width="1" height="1" fill="#e0c8a0"/>
<rect x="12" y="5" width="1" height="1" fill="#e0c8a0"/>
<rect x="13" y="5" width="1" height="1" fill="#a69a74"/>
<rect x="14" y="5" width="1" height="1" fill="#161109"/>
<rect x="6" y="6" width="1" height="1" fill="#161109"/>
<rect x="7" y="6" width="1" height="1" fill="#ffe4c3"/>
<rect x="8" y="6" width="1" height="1" fill="#e0c8a0"/>
<rect x="9" y="6" width="1" height="1" fill="#e0c8a0"/>
<rect x="10" y="6" width="1" height="1" fill="#e0c8a0"/>
<rect x="11" y="6" width="1" height="1" fill="#e0c8a0"/>
<rect x="12" y="6" width="1" height="1" fill="#ffffff"/>
<rect x="13" y="6" width="1" height="1" fill="#a69a74"/>
<rect x="14" y="6" width="1" height="1" fill="#161109"/>
<rect x="6" y="7" width="1" height="1" fill="#161109"/>
<rect x="7" y="7" width="1" height="1" fill="#e0c8a0"/>
<rect x="8" y="7" width="1" height="1" fill="#e0c8a0"/>
<rect x="9" y="7" width="1" height="1" fill="#5a3a24"/>
<rect x="10" y="7" width="1" height="1" fill="#5a3a24"/>
<rect x="11" y="7" width="1" height="1" fill="#5a3a24"/>
<rect x="12" y="7" width="1" height="1" fill="#2a1a22"/>
<rect x="13" y="7" width="1" height="1" fill="#3a3430"/>
<rect x="14" y="7" width="1" height="1" fill="#2b2723"/>
<rect x="15" y="7" width="1" height="1" fill="#161109"/>
<rect x="1" y="8" width="1" height="1" fill="#161109"/>
<rect x="2" y="8" width="1" height="1" fill="#161109"/>
<rect x="3" y="8" width="1" height="1" fill="#161109"/>
<rect x="4" y="8" width="1" height="1" fill="#161109"/>
<rect x="5" y="8" width="1" height="1" fill="#161109"/>
<rect x="6" y="8" width="1" height="1" fill="#c58c69"/>
<rect x="7" y="8" width="1" height="1" fill="#e0c8a0"/>
<rect x="8" y="8" width="1" height="1" fill="#e0c8a0"/>
<rect x="9" y="8" width="1" height="1" fill="#e0c8a0"/>
<rect x="10" y="8" width="1" height="1" fill="#e0c8a0"/>
<rect x="11" y="8" width="1" height="1" fill="#e0c8a0"/>
<rect x="12" y="8" width="1" height="1" fill="#ff9aa8"/>
<rect x="13" y="8" width="1" height="1" fill="#747250"/>
<rect x="14" y="8" width="1" height="1" fill="#2b2723"/>
<rect x="15" y="8" width="1" height="1" fill="#161109"/>
<rect x="0" y="9" width="1" height="1" fill="#161109"/>
<rect x="1" y="9" width="1" height="1" fill="#b57b5d"/>
<rect x="2" y="9" width="1" height="1" fill="#8a5a38"/>
<rect x="3" y="9" width="1" height="1" fill="#8a5a38"/>
<rect x="4" y="9" width="1" height="1" fill="#8a5a38"/>
<rect x="5" y="9" width="1" height="1" fill="#c58c69"/>
<rect x="6" y="9" width="1" height="1" fill="#74482c"/>
<rect x="7" y="9" width="1" height="1" fill="#74482c"/>
<rect x="8" y="9" width="1" height="1" fill="#e0c8a0"/>
<rect x="9" y="9" width="1" height="1" fill="#e0c8a0"/>
<rect x="10" y="9" width="1" height="1" fill="#e0c8a0"/>
<rect x="11" y="9" width="1" height="1" fill="#e0c8a0"/>
<rect x="12" y="9" width="1" height="1" fill="#a69a74"/>
<rect x="13" y="9" width="1" height="1" fill="#161109"/>
<rect x="14" y="9" width="1" height="1" fill="#161109"/>
<rect x="0" y="10" width="1" height="1" fill="#161109"/>
<rect x="1" y="10" width="1" height="1" fill="#8a5a38"/>
<rect x="2" y="10" width="1" height="1" fill="#664a26"/>
<rect x="3" y="10" width="1" height="1" fill="#664a26"/>
<rect x="4" y="10" width="1" height="1" fill="#8a5a38"/>
<rect x="5" y="10" width="1" height="1" fill="#c58c69"/>
<rect x="6" y="10" width="1" height="1" fill="#74482c"/>
<rect x="7" y="10" width="1" height="1" fill="#5a3a24"/>
<rect x="8" y="10" width="1" height="1" fill="#74482c"/>
<rect x="9" y="10" width="1" height="1" fill="#74482c"/>
<rect x="10" y="10" width="1" height="1" fill="#9a6a42"/>
<rect x="11" y="10" width="1" height="1" fill="#9a6a42"/>
<rect x="12" y="10" width="1" height="1" fill="#72572d"/>
<rect x="13" y="10" width="1" height="1" fill="#161109"/>
<rect x="1" y="11" width="1" height="1" fill="#161109"/>
<rect x="2" y="11" width="1" height="1" fill="#161109"/>
<rect x="3" y="11" width="1" height="1" fill="#161109"/>
<rect x="4" y="11" width="1" height="1" fill="#161109"/>
<rect x="5" y="11" width="1" height="1" fill="#74482c"/>
<rect x="6" y="11" width="1" height="1" fill="#5a3a24"/>
<rect x="7" y="11" width="1" height="1" fill="#74482c"/>
<rect x="8" y="11" width="1" height="1" fill="#74482c"/>
<rect x="9" y="11" width="1" height="1" fill="#74482c"/>
<rect x="10" y="11" width="1" height="1" fill="#9a6a42"/>
<rect x="11" y="11" width="1" height="1" fill="#a08d5e"/>
<rect x="12" y="11" width="1" height="1" fill="#706a40"/>
<rect x="13" y="11" width="1" height="1" fill="#161109"/>
<rect x="4" y="12" width="1" height="1" fill="#161109"/>
<rect x="5" y="12" width="1" height="1" fill="#72572d"/>
<rect x="6" y="12" width="1" height="1" fill="#9a6a42"/>
<rect x="7" y="12" width="1" height="1" fill="#74482c"/>
<rect x="8" y="12" width="1" height="1" fill="#d8b484"/>
<rect x="9" y="12" width="1" height="1" fill="#a08d5e"/>
<rect x="10" y="12" width="1" height="1" fill="#a08d5e"/>
<rect x="11" y="12" width="1" height="1" fill="#706a40"/>
<rect x="12" y="12" width="1" height="1" fill="#161109"/>
<rect x="5" y="13" width="1" height="1" fill="#161109"/>
<rect x="6" y="13" width="1" height="1" fill="#161109"/>
<rect x="7" y="13" width="1" height="1" fill="#a08d5e"/>
<rect x="8" y="13" width="1" height="1" fill="#a08d5e"/>
<rect x="9" y="13" width="1" height="1" fill="#a08d5e"/>
<rect x="10" y="13" width="1" height="1" fill="#e8c850"/>
<rect x="11" y="13" width="1" height="1" fill="#161109"/>
<rect x="7" y="14" width="1" height="1" fill="#161109"/>
<rect x="8" y="14" width="1" height="1" fill="#161109"/>
<rect x="9" y="14" width="1" height="1" fill="#54471e"/>
<rect x="10" y="14" width="1" height="1" fill="#aca434"/>
<rect x="11" y="14" width="1" height="1" fill="#aca434"/>
<rect x="12" y="14" width="1" height="1" fill="#161109"/>
<rect x="9" y="15" width="1" height="1" fill="#161109"/>
<rect x="10" y="15" width="1" height="1" fill="#161109"/>
<rect x="11" y="15" width="1" height="1" fill="#161109"/>
</svg>
