<svg xmlns="http://www.w3.org/2000/svg"
 viewBox="0 0 160 120"
 role="img"
 aria-label="kite pet master artwork">
 <title>kite</title>
 <g id="pet-root">

  <g id="tail-feathers">
   <path d="M66 78 L25 98 L60 83Z"
    fill="#625b52" stroke="#2e2925" stroke-width="2"/>
   <path d="M70 82 L31 109 L76 88Z"
    fill="#514b45" stroke="#2e2925" stroke-width="2"/>
   <path d="M74 82 L48 111 L82 88Z"
    fill="#70685e" stroke="#2e2925" stroke-width="2"/>
  </g>

  <g id="body">
   <path d="M49 68
            Q54 47 77 43
            Q101 43 115 64
            Q105 87 81 91
            Q57 88 49 68Z"
    fill="#756d64" stroke="#2f2924" stroke-width="3"/>
  </g>

  <g id="wing-left">
   <path d="M70 62
            Q44 37 12 28
            Q29 54 61 75
            Q69 73 76 68Z"
    fill="#8c8378" stroke="#2f2924" stroke-width="3"/>
  </g>

  <g id="wing-right">
   <path d="M88 61
            Q119 35 150 28
            Q136 54 101 76
            Q93 73 84 67Z"
    fill="#625c55" stroke="#2f2924" stroke-width="3"/>
  </g>

  <g id="wing-primary-left">
   <path d="M21 31 L48 48 L31 31Z M30 37 L57 56 L40 34Z"
    fill="#514b45"/>
  </g>

  <g id="wing-primary-right">
   <path d="M139 31 L112 48 L129 31Z M130 37 L103 56 L120 34Z"
    fill="#4c4742"/>
  </g>

  <g id="neck">
   <path d="M68 58 Q71 39 88 33 Q103 38 108 57 Q91 67 68 58Z"
    fill="#746d65" stroke="#2f2924" stroke-width="3"/>
  </g>

  <g id="head">
   <path d="M74 40 Q75 23 91 18 Q108 19 116 34
            Q112 49 98 53 Q82 51 74 40Z"
    fill="#827a70" stroke="#2f2924" stroke-width="3"/>
  </g>

  <g id="beak">
   <path d="M110 31 L143 39 L112 46 Q120 39 110 31Z"
    fill="#b37c3f" stroke="#2f2924" stroke-width="2"/>
  </g>

  <g id="leg-left">
   <path d="M69 78 L66 101 L72 101 L75 80Z"
    fill="#96714a" stroke="#302a25" stroke-width="2"/>
  </g>

  <g id="leg-right">
   <path d="M94 78 L92 101 L98 101 L100 79Z"
    fill="#96714a" stroke="#302a25" stroke-width="2"/>
  </g>

  <g id="foot-left">
   <path d="M64 101 Q69 105 75 101"
    fill="none" stroke="#302a25" stroke-width="2"/>
  </g>

  <g id="foot-right">
   <path d="M90 101 Q95 105 101 101"
    fill="none" stroke="#302a25" stroke-width="2"/>
  </g>

  <g id="eye">
   <circle cx="97" cy="31" r="3" fill="#171717"/>
  </g>

 </g>
</svg>
