<svg xmlns="http://www.w3.org/2000/svg"
 viewBox="0 0 160 120"
 role="img"
 aria-label="monkey pet master artwork">
 <title>monkey</title>
 <g id="pet-root">
  <g id="tail"><path d="M119 76 Q151 74 145 48 Q142 38 134 42 Q141 58 122 62 Q112 65 116 73 Z" fill="#74513d" stroke="#342820" stroke-width="3" stroke-linejoin="round"/></g>
  <g id="hind-legs"><path d="M48 76 Q43 93 42 108 L50 108 Q53 92 57 78 Z" fill="#74513d" stroke="#342820" stroke-width="3" stroke-linejoin="round"/><path d="M67 78 Q65 96 63 111 L71 111 Q75 94 75 80 Z" fill="#74513d" stroke="#342820" stroke-width="3" stroke-linejoin="round"/></g>
  <g id="body"><path d="M 35 68 Q 43.1 43.0 80 41.8 Q 116.9 48.5 125 68 Q 112.4 93.0 80 90.5 Q 44.0 88.5 35 68 Z" fill="#74513d" stroke="#342820" stroke-width="3" stroke-linejoin="round"/></g>
  <g id="front-legs"><path d="M91 79 Q95 94 100 109 L108 108 Q104 90 101 76 Z" fill="#74513d" stroke="#342820" stroke-width="3" stroke-linejoin="round"/><path d="M111 76 Q120 91 125 104 L132 101 Q124 84 117 72 Z" fill="#74513d" stroke="#342820" stroke-width="3" stroke-linejoin="round"/></g>
  <g id="neck"><path d="M 65.7 55 Q 67.9 35.0 80 35.0 Q 92.1 35.0 94.3 55 Z" fill="#74513d" stroke="#342820" stroke-width="3" stroke-linejoin="round"/></g>
  <g id="head"><ellipse cx="80" cy="40" rx="22" ry="20" fill="#74513d" stroke="#342820" stroke-width="3"/><circle cx="58" cy="29" r="10" fill="#74513d" stroke="#342820" stroke-width="3"/><circle cx="102" cy="29" r="10" fill="#74513d" stroke="#342820" stroke-width="3"/><path d="M 74.6 46 Q80 57.6 85.4 46 Q80 62.4 74.6 46 Z" fill="#d7b89a" stroke="#342820" stroke-width="2" stroke-linejoin="round"/></g>
  <g id="face"><circle cx="72.5" cy="39" r="3.2" fill="#211d1b"/><circle cx="87.5" cy="39" r="3.2" fill="#211d1b"/><path d="M76 50 Q80 54 84 50" fill="none" stroke="#342820" stroke-width="2.5" stroke-linecap="round"/></g>
  <g id="species-surface"><path d="M52 61 Q80 49 108 61" fill="none" stroke="#f4eadf" stroke-width="4" opacity=".28"/></g>
  <g id="markings"><path d="M69 50 Q80 56 91 50 Q88 65 80 68 Q72 65 69 50 Z" fill="#d5b18d" stroke="#342820" stroke-width="2" stroke-linejoin="round"/></g>
 </g>
</svg>
