<svg xmlns="http://www.w3.org/2000/svg"
 viewBox="0 0 160 120"
 role="img"
 aria-label="owl pet master artwork">
 <title>owl</title>
 <g id="pet-root">
  <g id="tail"><path d="M78 88 L88 106 L98 89 L108 106 L118 86" fill="#62513f"/></g>
  <g id="hind-legs">
   <path d="M58 82 Q53 99 57 107" fill="none" stroke="#49372b" stroke-width="9" stroke-linecap="round"/>
   <path d="M102 82 Q107 99 103 107" fill="none" stroke="#49372b" stroke-width="9" stroke-linecap="round"/>
  </g>
  <g id="body"><path d="M54 84 Q49 49 76 35 Q101 23 126 40 Q143 54 136 84 Q120 101 94 101 Q67 99 54 84 Z" fill="#75644f"/></g>
  <g id="front-legs">
   <path d="M64 80 Q60 96 62 108" fill="none" stroke="#49372b" stroke-width="9" stroke-linecap="round"/>
   <path d="M96 80 Q100 96 98 108" fill="none" stroke="#49372b" stroke-width="9" stroke-linecap="round"/>
  </g>
  <g id="neck"><path d="M78 54 Q92 40 109 46 L117 68 L105 78 L88 75 Z" fill="#675845"/></g>
  <g id="head"><path d="M68 43 Q68 20 87 18 Q96 27 103 18 Q123 20 123 43 Q118 59 97 61 Q75 58 68 43 Z" fill="#806d55"/><circle cx="84" cy="40" r="10" fill="#ded5c5"/><circle cx="108" cy="40" r="10" fill="#ded5c5"/><circle cx="84" cy="40" r="4" fill="#171717"/><circle cx="108" cy="40" r="4" fill="#171717"/></g>
  <g id="face">
   <circle cx="69" cy="42" r="3.5" fill="#211d1b"/>
   <circle cx="91" cy="42" r="3.5" fill="#211d1b"/>
   <path d="M75 52 Q80 56 85 52" fill="none" stroke="#342820" stroke-width="2.5" stroke-linecap="round"/>
  </g>
  <g id="species-surface">
   
  </g>
  <g id="markings">
   <path d="M62 73 Q80 82 98 73" fill="none" stroke="#ffffff" stroke-opacity=".18" stroke-width="4"/>
  </g>
 </g>
</svg>
